HIERARCHY
ROOT root
{
	OFFSET 0.000000 0.000000 0.000000
	CHANNELS 6 Xposition Yposition Zposition Zrotation Yrotation Xrotation
	JOINT lhip
	{
		OFFSET 0.058581 -0.082280 -0.017664
		CHANNELS 3 Zrotation Yrotation Xrotation
		JOINT lknee
		{
			OFFSET 0.043451 -0.386469 0.008037
			CHANNELS 3 Zrotation Yrotation Xrotation
			JOINT lankle
			{
				OFFSET -0.014790 -0.426874 -0.037428
				CHANNELS 3 Zrotation Yrotation Xrotation
				JOINT ltoe
				{
					OFFSET 0.041054 -0.060286 0.122042
					CHANNELS 3 Zrotation Yrotation Xrotation
					End Site
					{
						OFFSET 0.000000 0.000000 0.000000
					}
				}
			}
		}
	}
	JOINT rhip
	{
		OFFSET -0.060310 -0.090513 -0.013543
		CHANNELS 3 Zrotation Yrotation Xrotation
		JOINT rknee
		{
			OFFSET -0.043257 -0.383688 -0.004843
			CHANNELS 3 Zrotation Yrotation Xrotation
			JOINT rankle
			{
				OFFSET 0.019056 -0.420046 -0.034562
				CHANNELS 3 Zrotation Yrotation Xrotation
				JOINT rtoe
				{
					OFFSET -0.034840 -0.062106 0.130323
					CHANNELS 3 Zrotation Yrotation Xrotation
					End Site
					{
						OFFSET 0.000000 0.000000 0.000000
					}
				}
			}
		}
	}
	JOINT lowerback
	{
		OFFSET 0.004439 0.124404 -0.038385
		CHANNELS 3 Zrotation Yrotation Xrotation
		JOINT upperback
		{
			OFFSET 0.004488 0.137956 0.026820
			CHANNELS 3 Zrotation Yrotation Xrotation
			JOINT chest
			{
				OFFSET -0.002265 0.056032 0.002855
				CHANNELS 3 Zrotation Yrotation Xrotation
				JOINT lowerneck
				{
					OFFSET -0.013390 0.211636 -0.033468
					CHANNELS 3 Zrotation Yrotation Xrotation
					JOINT upperneck
					{
						OFFSET 0.010113 0.088937 0.050410
						CHANNELS 3 Zrotation Yrotation Xrotation
						End Site
						{
							OFFSET 0.000000 0.000000 0.000000
						}
					}
				}
				JOINT lclavicle
				{
					OFFSET 0.071702 0.114000 -0.018898
					CHANNELS 3 Zrotation Yrotation Xrotation
					JOINT lshoulder
					{
						OFFSET 0.122921 0.045205 -0.019046
						CHANNELS 3 Zrotation Yrotation Xrotation
						JOINT lelbow
						{
							OFFSET 0.255332 -0.015649 -0.022946
							CHANNELS 3 Zrotation Yrotation Xrotation
							JOINT lwrist
							{
								OFFSET 0.265709 0.012698 -0.007375
								CHANNELS 3 Zrotation Yrotation Xrotation
								End Site
								{
									OFFSET 0.000000 0.000000 0.000000
								}
							}
						}
					}
				}
				JOINT rclavicle
				{
					OFFSET -0.082954 0.112472 -0.023707
					CHANNELS 3 Zrotation Yrotation Xrotation
					JOINT rshoulder
					{
						OFFSET -0.113228 0.046853 -0.008472
						CHANNELS 3 Zrotation Yrotation Xrotation
						JOINT relbow
						{
							OFFSET -0.260127 -0.014369 -0.031269
							CHANNELS 3 Zrotation Yrotation Xrotation
							JOINT rwrist
							{
								OFFSET -0.269108 0.006794 -0.006027
								CHANNELS 3 Zrotation Yrotation Xrotation
								End Site
								{
									OFFSET 0.000000 0.000000 0.000000
								}
							}
						}
					}
				}
			}
		}
	}
}
MOTION
Frames: 14
Frame Time: 0.033333
-0.826706 0.741307 1.508510 93.856458 -6.676504 -36.902240 18.300133 -3.315533 -55.832311 -11.412816 21.536922 103.721668 -3.150957 -3.653105 -7.175065 0.000000 -0.000000 0.000000 -16.846181 5.227841 -54.689629 -0.323200 -6.786928 109.520195 -0.943976 -4.822771 -8.172123 0.000000 -0.000000 0.000000 -3.059655 3.307405 60.358071 -0.276889 1.645554 -0.601301 0.895579 1.222878 -1.465138 -3.640472 0.924309 -17.625509 9.633857 3.933424 -13.578062 -29.910624 -16.970488 6.441768 -45.203987 -2.413396 10.901579 6.995822 -62.127406 -22.404968 11.512940 -0.153305 -36.859344 25.962135 22.314926 10.736188 55.391164 4.969881 14.597476 -25.994789 53.102665 -41.715585 -6.833895 5.762855 -34.898490 
-0.883161 0.739632 1.569015 95.390144 -3.134049 -69.615050 21.108036 -2.315523 -58.356796 -10.306158 22.332785 111.937622 -6.164062 -6.629547 -8.166737 0.000000 -0.000000 0.000000 -16.629960 6.705570 -56.186200 0.410438 -5.722159 114.114173 0.119622 -4.172619 -9.282127 0.000000 -0.000000 0.000000 -2.978893 1.769550 62.234764 -0.051125 1.912174 -0.919888 1.404437 1.279234 -3.079352 -4.833951 -2.876932 -22.721746 10.504699 4.830193 -17.007705 -28.981979 -16.898570 7.476614 -49.515075 -2.041019 11.482273 11.697551 -65.671058 -21.628028 3.660904 -10.605828 -45.840115 22.373701 22.161377 9.244034 53.165693 -1.122187 14.900709 -17.974920 64.890232 -22.868940 20.116328 22.381016 -38.626281 
-0.945013 0.737541 1.593125 95.577901 -0.381583 -92.279859 21.824750 -2.589219 -56.273967 -10.682924 23.149297 113.419638 -6.965596 -6.894210 -8.480295 0.000000 -0.000000 0.000000 -15.983019 5.725495 -53.529046 0.686390 -7.534772 112.812851 0.150195 -3.621988 -9.679221 0.000000 -0.000000 0.000000 -2.288752 1.966139 63.347563 -0.280451 1.733515 -1.416519 2.100176 1.442790 -5.093867 -4.887551 -4.742213 -21.193554 10.349290 5.760902 -21.018456 -28.504373 -18.879328 7.984084 -46.289795 0.899868 12.007342 4.339128 -67.784892 -12.529462 3.371502 -8.333095 -41.205349 21.134699 25.630499 10.458773 50.708592 -2.421784 13.185215 -14.390148 61.840075 -24.662751 8.902162 17.204356 -43.376271 
-0.981023 0.737958 1.598571 95.639824 1.542786 -103.725032 20.778668 -2.519814 -54.688832 -10.471920 23.072645 113.770192 -7.392765 -7.934490 -9.222439 0.000000 -0.000000 0.000000 -15.173733 4.650258 -52.102669 0.408486 -6.671487 111.745721 1.121208 -3.716476 -9.616103 0.000000 -0.000000 0.000000 -1.840650 2.508977 63.984343 -0.505662 1.736164 -1.602363 2.131112 1.248567 -4.708368 -5.048367 -4.382781 -23.085903 9.895505 5.483970 -22.604978 -27.786427 -19.203513 7.398175 -47.495918 -0.012115 11.579317 4.203713 -65.375635 -13.346364 3.562190 -9.612778 -41.326546 21.764892 25.057678 10.595259 50.475456 -2.317495 12.984126 -15.832270 61.158406 -26.381309 9.831821 18.087955 -42.694733 
-1.050585 0.729114 1.583148 99.451617 5.514942 -130.390950 19.782210 2.775692 -44.085101 -10.642030 18.284939 110.396693 -10.545281 -8.216639 -10.799226 0.000000 -0.000000 0.000000 -6.255299 8.496129 -44.683784 0.014257 -3.467127 105.350299 1.997976 -4.912461 -9.388831 0.000000 -0.000000 0.000000 -2.240227 5.645828 73.035579 -3.414430 4.620997 -3.922072 3.353995 2.112835 -4.867372 -5.191205 -3.511980 -25.176956 10.511434 4.892899 -22.377929 -27.045556 -17.459892 3.658965 -48.450345 -0.429078 9.589733 0.502925 -64.156796 -8.244061 0.852381 -10.134623 -40.907894 21.430537 23.204678 6.800820 53.957470 -2.711673 11.084036 -17.730333 59.583275 -28.165894 11.521808 15.533733 -36.943055 
-1.121383 0.725889 1.554721 100.793042 8.851071 -154.796953 21.105639 5.585059 -38.189355 -10.736510 13.228045 104.264300 -13.484019 -6.899477 -20.998093 0.000000 -0.000000 0.000000 0.908597 11.730537 -36.719576 -2.120295 -4.795777 93.829808 2.511738 -6.862239 -10.028433 0.000000 -0.000000 0.000000 0.118631 4.689496 78.227486 -5.348164 6.046206 -4.160036 3.419039 2.906311 -4.824913 -5.691368 -4.597325 -20.862301 11.293408 4.558230 -21.396042 -27.971205 -17.938171 1.936182 -48.281479 -0.000809 9.167508 3.099179 -63.550025 -8.079862 -1.537625 -10.395113 -39.231793 20.318507 24.136192 3.938618 55.224415 -4.618377 9.199880 -16.694708 58.086362 -25.119379 13.046963 12.301199 -32.952428 
-1.199285 0.728334 1.516566 98.502461 9.703968 -173.806511 20.260197 3.188373 -40.128654 -7.003557 9.517588 91.549167 -11.092937 -3.065332 -15.658375 0.000000 -0.000000 0.000000 3.932202 11.036748 -34.506522 -0.981521 -7.764440 79.020068 3.674092 -7.785633 -6.807697 0.000000 -0.000000 0.000000 0.337952 -0.301091 77.645507 -5.386580 5.248681 -4.197369 1.519785 4.441208 -4.513995 -6.462076 -5.878627 -16.288781 12.286293 6.026000 -16.154633 -25.342208 -14.365425 -4.153195 -49.851152 -2.262957 11.114681 -4.137575 -57.502827 2.461951 -1.681511 -8.971908 -35.901551 19.061245 22.201155 2.962748 57.292536 -2.248212 10.156142 -18.745503 52.041328 -25.685534 10.985322 11.094084 -28.107556 
-1.287753 0.733772 1.458412 94.599508 8.200617 172.891705 19.363953 1.838496 -45.641328 -3.899551 9.335906 74.413411 12.643100 6.931784 -4.527818 0.000000 -0.000000 0.000000 4.766816 5.778476 -37.824411 1.930702 -6.160617 62.735894 4.007229 -9.705370 -1.275475 0.000000 -0.000000 0.000000 0.272466 -5.374669 71.987284 -4.536968 3.477125 -7.998550 0.657656 3.016816 -0.942629 -9.123585 -8.751329 -11.450266 13.046209 10.313803 -11.424579 -26.754414 -10.436353 -2.609669 -49.157751 -4.964042 9.996893 -3.413791 -55.749196 1.799802 7.716341 -1.696162 -32.760186 17.923916 21.106532 5.486942 58.098221 0.686981 9.465916 -21.308144 44.478490 -31.329212 4.238817 8.049181 -20.536363 
-1.365324 0.734996 1.375502 92.078079 8.468227 158.457504 14.591392 6.789241 -42.082317 -5.126869 10.075443 54.212680 8.230765 5.247482 3.029206 0.000000 -0.000000 0.000000 7.306624 4.134219 -33.934391 1.734541 -4.101725 41.659280 7.474266 -5.637746 0.762510 0.000000 -0.000000 0.000000 0.582362 -7.055221 66.713367 -4.511021 2.073501 -5.053539 0.862925 2.401891 -1.681272 -11.499339 -8.119031 -6.544547 13.067833 11.516238 -7.383720 -27.717400 -8.946525 -3.487470 -49.231105 -4.446564 9.618987 0.078759 -52.914616 -2.026282 12.023549 -1.836976 -28.617552 17.620572 20.232786 7.419563 54.996446 1.163742 7.184537 -20.643402 39.451251 -32.735382 -3.782691 7.272941 -18.384248 
-1.444813 0.731674 1.273586 89.322846 8.011097 149.045336 7.839710 4.391262 -38.409875 -1.346946 15.164089 27.273039 10.869593 6.249121 -1.944745 0.000000 -0.000000 0.000000 6.157188 7.675922 -34.203613 1.367928 -5.456161 20.729463 11.386915 -7.608028 3.260283 0.000000 -0.000000 0.000000 1.152874 -5.522267 54.659869 -3.454017 2.381160 -2.000364 1.737726 0.943340 -1.094972 -11.293805 -4.925748 2.196796 9.714068 9.727172 -5.766795 -26.943141 -7.327883 -0.488911 -50.200477 -7.557034 11.125803 3.641979 -48.368392 -5.436346 10.385215 -4.967722 -22.308533 16.500011 15.025406 8.412113 51.866358 2.292100 7.913285 -21.415680 36.431893 -33.013204 -7.294766 7.008921 -17.583317 
-1.519976 0.728580 1.146564 82.612800 7.819021 139.534455 7.821588 -1.815810 -33.975006 -5.159915 11.456364 6.560730 11.628586 12.287286 2.353126 0.000000 -0.000000 0.000000 2.887906 11.116381 -37.309177 1.797063 -0.975254 12.631466 -0.702489 -13.170473 18.051493 0.000000 -0.000000 0.000000 -2.249263 -0.237893 41.738675 -2.652453 3.086522 -1.673946 2.946132 -0.995526 3.823819 -10.440176 -2.713305 7.233402 8.890164 8.047299 -0.123317 -23.887598 -4.943491 1.845923 -52.790667 -10.996757 11.947166 5.602131 -45.759557 -6.179700 15.564574 -4.278576 -21.488355 13.415981 10.275700 8.858035 51.823418 5.758928 8.167776 -23.732019 33.930061 -30.922948 -9.503738 5.135252 -20.819027 
-1.570593 0.729460 1.009759 80.889552 4.800611 123.857371 6.641573 -3.998947 -28.081782 -4.583375 5.074411 16.887248 11.284576 8.750865 7.069871 0.000000 -0.000000 0.000000 3.149888 5.855663 -35.249993 1.702134 0.400501 26.912484 4.893296 -4.941839 0.797079 0.000000 -0.000000 0.000000 -1.059405 0.409099 39.869679 -3.180591 1.526501 -1.959575 1.578837 -0.928847 3.996377 -8.670825 -2.249315 13.103881 9.189506 6.979427 4.558432 -23.572768 -6.739704 4.009689 -50.413385 -8.250505 11.254085 8.234280 -46.953804 -7.616905 18.801878 -0.543332 -21.766289 13.831942 10.599028 7.340439 50.163695 3.542443 3.403937 -22.872543 31.807478 -31.085864 -13.335556 5.189701 -17.559406 
-1.621715 0.726513 0.899884 81.405567 3.196444 111.582991 8.316819 -6.862670 -26.069027 -10.973156 -2.764144 40.021160 14.486615 14.760682 -43.150758 0.000000 -0.000000 0.000000 4.141520 11.200274 -37.633279 6.029731 3.158416 53.546994 0.671899 -20.093885 -25.658128 0.000000 -0.000000 0.000000 -1.131459 -0.945121 38.471899 -2.413733 2.932701 0.258363 0.032202 -0.471793 1.735466 -6.056099 -2.979727 15.944113 6.943534 7.239865 4.403383 -29.868412 -9.263676 4.537373 -38.853577 -6.991945 13.021922 10.216869 -47.055023 -14.878510 22.602284 5.040385 -16.990508 22.599486 13.366780 7.442996 41.104986 3.750981 3.753497 -24.371174 27.040101 -39.770757 -17.082093 3.646662 -15.127514 
-1.677235 0.719311 0.858035 83.633387 1.109000 104.660546 9.324136 -6.913365 -38.703785 -10.187460 9.744242 65.787479 10.489021 13.996038 -38.050417 0.000000 -0.000000 0.000000 3.161532 13.156687 -42.757108 4.419021 -2.969967 67.737699 -0.273459 -23.094619 -27.508645 0.000000 -0.000000 0.000000 -1.755530 -1.438804 42.488067 -1.560815 2.419215 0.393310 -0.994066 -0.027585 1.293541 -5.496414 -2.818567 14.204223 8.344259 7.345598 0.832255 -33.811849 -15.063010 7.594927 -28.860429 -10.024206 12.468028 16.478317 -44.094193 -28.100087 24.755856 7.526547 -16.192389 29.388480 18.559207 13.098264 35.878893 10.648922 2.761925 -25.936482 25.308373 -43.035382 -21.004870 1.001519 -13.463502 
